<svg xmlns="http://www.w3.org/2000/svg" viewBox="0 0 31.799 18.641"><defs><style>.a{fill:#d34d44;}</style></defs><g transform="translate(0 0)"><path class="a" d="M.119,7.9A9.312,9.312,0,0,1,7.711.085a9.1,9.1,0,0,1,7.074,1.685c.239.186.465.4.6.5-.77.863-1.513,1.7-2.3,2.588a5.468,5.468,0,0,0-4.539-1.42A5.558,5.558,0,0,0,5.282,5.062,5.912,5.912,0,0,0,4.234,12.03a5.813,5.813,0,0,0,6.516,2.933,4.675,4.675,0,0,0,3.743-3.849H9.33V7.929H18.1c.372,3.225-.2,6.158-2.681,8.361a8.753,8.753,0,0,1-9.529,1.566A8.849,8.849,0,0,1,.119,10.583c0-.173-.013-.345-.013-.518C.066,9.88.027,9.694,0,9.521V8.99c.04-.186.066-.372.106-.557C.119,8.247.119,8.075.119,7.9Z" transform="translate(0 0.039)"/><path class="a" d="M164.228,34.268V30.3h2.628v3.9h3.968v2.654h-3.9v3.968h-2.654v-3.9H160.3V34.268Z" transform="translate(-139.026 -26.274)"/></g></svg>