<svg xmlns="http://www.w3.org/2000/svg" viewBox="0 0 23.289 18.641"><defs><style>.a{fill:#36abdf;fill-rule:evenodd;}</style></defs><path class="a" d="M23.29,2.209a10.263,10.263,0,0,1-2.716.736A4.777,4.777,0,0,0,22.691.322a9.664,9.664,0,0,1-3.038,1.151A4.974,4.974,0,0,0,16.11,0a4.764,4.764,0,0,0-4.787,4.695,3.923,3.923,0,0,0,.138,1.059A13.54,13.54,0,0,1,1.611.875,4.964,4.964,0,0,0,.967,3.222,4.712,4.712,0,0,0,3.084,7.134a4.36,4.36,0,0,1-2.163-.6v.046a4.311,4.311,0,0,0,.322,1.7,4.779,4.779,0,0,0,3.5,2.9,5.794,5.794,0,0,1-1.243.184,5.1,5.1,0,0,1-.875-.092,4.773,4.773,0,0,0,4.465,3.268A9.833,9.833,0,0,1,1.151,16.57c-.414,0-.736-.046-1.151-.046a13.742,13.742,0,0,0,7.318,2.117A13.265,13.265,0,0,0,20.574,8.1,12.064,12.064,0,0,0,20.9,5.247v-.6A10.932,10.932,0,0,0,23.29,2.209Z" transform="translate(-0.001 0.001)"/></svg>